<svg xmlns="http://www.w3.org/2000/svg" viewBox="0 0 47 37.25"><defs><style>.cls-1{fill:#ff3370;}</style></defs><title>check</title><g id="レイヤー_2" data-name="レイヤー 2"><g id="レイヤー_1-2" data-name="レイヤー 1"><path d="M30.06,37.25H5.94a2.05,2.05,0,0,1-1.87-1.94v-24A2.05,2.05,0,0,1,5.94,9.39H30.06a2.05,2.05,0,0,1,1.87,1.94v24A2.05,2.05,0,0,1,30.06,37.25Zm.07-2.84V12.2a.89.89,0,0,0-.9-1H6.77a.89.89,0,0,0-.9,1V34.41a.92.92,0,0,0,.9,1H29.23A.92.92,0,0,0,30.13,34.41Z"/><path class="cls-1" d="M18,37,47,0,18,24.5l-18-5Z"/></g></g></svg>