<svg width="90" height="90" viewBox="0 0 90 90" fill="none" xmlns="http://www.w3.org/2000/svg">
<g clip-path="url(#clip0_16_768)">
<path fill-rule="evenodd" clip-rule="evenodd" d="M45 90C20.25 90 0 69.75 0 45C0 20.25 20.25 0 45 0C69.75 0 90 20.25 90 45C90 69.75 69.75 90 45 90ZM45 6.75C23.85 6.75 6.75 23.85 6.75 45C6.75 66.15 23.85 83.25 45 83.25C66.15 83.25 83.25 66.15 83.25 45C83.25 23.85 66.15 6.75 45 6.75ZM45 69.75C47.49 69.75 49.5 67.74 49.5 65.25C49.5 62.76 47.49 60.75 45 60.75C42.51 60.75 40.5 62.76 40.5 65.25C40.5 67.74 42.51 69.75 45 69.75ZM41.85 54H48.6C48.15 49.5 49.95 45 53.1 41.85C62.55 34.2 58.95 19.35 46.8 18C39.15 16.65 31.5 22.95 31.5 31.05H38.25C38.25 23.85 49.5 22.5 51.75 28.8C52.2 30.6 52.65 33.75 49.05 36.9C44.1 41.4 41.4 47.25 41.85 54Z" fill="url(#paint0_linear_16_768)"/>
</g>
<defs>
<linearGradient id="paint0_linear_16_768" x1="0" y1="45" x2="90" y2="45" gradientUnits="userSpaceOnUse">
<stop stop-color="#BA79B1"/>
<stop offset="1" stop-color="#E3606F"/>
</linearGradient>
<clipPath id="clip0_16_768">
<rect width="90" height="90" fill="white"/>
</clipPath>
</defs>
</svg>
