<svg width="132" height="90" viewBox="0 0 132 90" fill="none" xmlns="http://www.w3.org/2000/svg">
<g clip-path="url(#clip0_16_775)">
<path d="M91.0994 90C78.5094 90 66.8294 85.95 59.0494 78.88C57.9294 77.85 57.8394 76.11 58.8594 74.98C59.8894 73.85 61.6294 73.77 62.7594 74.79C69.5294 80.95 79.8594 84.48 91.0894 84.48C99.6194 84.48 107.879 82.36 114.329 78.52C114.939 78.15 115.669 78.03 116.379 78.21L124.739 80.2L122.329 73.8C121.999 72.92 122.139 71.94 122.689 71.19C125.149 67.87 126.389 64.32 126.389 60.62C126.389 52.2 119.639 44.3 108.789 40C107.369 39.44 106.679 37.83 107.239 36.42C107.799 35 109.409 34.3 110.819 34.87C123.819 40.02 131.899 49.89 131.899 60.62C131.899 64.98 130.549 69.3 127.989 73.21L131.719 83.11C132.079 84.07 131.879 85.14 131.209 85.91C130.529 86.68 129.489 87.01 128.499 86.77L116.159 83.83C109.039 87.82 100.179 90 91.0894 90H91.0994Z" fill="url(#paint0_linear_16_775)"/>
<path d="M50.62 72.48C39.21 72.48 28.1 69.71 19.19 64.67L3.4 68.43C2.4 68.67 1.37 68.34 0.69 67.57C0.00999999 66.8 -0.18 65.73 0.18 64.77L5 51.97C1.72 47.1 0 41.69 0 36.24C0 16.25 22.71 0 50.62 0C78.53 0 101.24 16.25 101.24 36.24C101.24 56.23 78.53 72.48 50.62 72.48ZM19.62 58.98C20.11 58.98 20.6 59.11 21.03 59.37C29.26 64.27 39.77 66.97 50.62 66.97C75.49 66.97 95.73 53.18 95.73 36.24C95.73 19.3 75.5 5.51 50.62 5.51C25.74 5.51 5.52 19.3 5.52 36.24C5.52 41.04 7.13 45.65 10.31 49.95C10.86 50.7 11 51.68 10.67 52.56L7.17 61.87L18.98 59.06C19.19 59.01 19.41 58.99 19.62 58.99V58.98Z" fill="url(#paint1_linear_16_775)"/>
<path d="M31.5803 44.9602C27.4403 44.9602 24.0703 41.5902 24.0703 37.4502C24.0703 33.3102 27.4403 29.9302 31.5803 29.9302C35.7203 29.9302 39.1003 33.3002 39.1003 37.4502C39.1003 41.6002 35.7303 44.9602 31.5803 44.9602ZM31.5803 35.4402C30.4803 35.4402 29.5803 36.3402 29.5803 37.4502C29.5803 38.5602 30.4803 39.4502 31.5803 39.4502C32.6803 39.4502 33.5903 38.5502 33.5903 37.4502C33.5903 36.3502 32.6903 35.4402 31.5803 35.4402Z" fill="url(#paint2_linear_16_775)"/>
<path d="M51.7309 44.9602C47.5909 44.9602 44.2109 41.5902 44.2109 37.4502C44.2109 33.3102 47.5809 29.9302 51.7309 29.9302C55.8809 29.9302 59.2509 33.3002 59.2509 37.4502C59.2509 41.6002 55.8809 44.9602 51.7309 44.9602ZM51.7309 35.4402C50.6209 35.4402 49.7209 36.3402 49.7209 37.4502C49.7209 38.5602 50.6209 39.4502 51.7309 39.4502C52.8409 39.4502 53.7409 38.5502 53.7409 37.4502C53.7409 36.3502 52.8409 35.4402 51.7309 35.4402Z" fill="url(#paint3_linear_16_775)"/>
<path d="M71.8716 44.9602C67.7316 44.9602 64.3516 41.5902 64.3516 37.4502C64.3516 33.3102 67.7216 29.9302 71.8716 29.9302C76.0216 29.9302 79.3916 33.3002 79.3916 37.4502C79.3916 41.6002 76.0216 44.9602 71.8716 44.9602ZM71.8716 35.4402C70.7616 35.4402 69.8616 36.3402 69.8616 37.4502C69.8616 38.5602 70.7616 39.4502 71.8716 39.4502C72.9816 39.4502 73.8816 38.5502 73.8816 37.4502C73.8816 36.3502 72.9816 35.4402 71.8716 35.4402Z" fill="url(#paint4_linear_16_775)"/>
</g>
<defs>
<linearGradient id="paint0_linear_16_775" x1="58.1594" y1="62.34" x2="131.919" y2="62.34" gradientUnits="userSpaceOnUse">
<stop stop-color="#BA79B1"/>
<stop offset="1" stop-color="#E3606F"/>
</linearGradient>
<linearGradient id="paint1_linear_16_775" x1="0" y1="36.24" x2="101.25" y2="36.24" gradientUnits="userSpaceOnUse">
<stop stop-color="#BA79B1"/>
<stop offset="1" stop-color="#E3606F"/>
</linearGradient>
<linearGradient id="paint2_linear_16_775" x1="24.0703" y1="37.4402" x2="39.1003" y2="37.4402" gradientUnits="userSpaceOnUse">
<stop stop-color="#BA79B1"/>
<stop offset="1" stop-color="#E3606F"/>
</linearGradient>
<linearGradient id="paint3_linear_16_775" x1="44.2109" y1="37.4402" x2="59.2409" y2="37.4402" gradientUnits="userSpaceOnUse">
<stop stop-color="#BA79B1"/>
<stop offset="1" stop-color="#E3606F"/>
</linearGradient>
<linearGradient id="paint4_linear_16_775" x1="64.3516" y1="37.4402" x2="79.3916" y2="37.4402" gradientUnits="userSpaceOnUse">
<stop stop-color="#BA79B1"/>
<stop offset="1" stop-color="#E3606F"/>
</linearGradient>
<clipPath id="clip0_16_775">
<rect width="131.92" height="90" fill="white"/>
</clipPath>
</defs>
</svg>
