<svg width="106" height="106" viewBox="0 0 106 106" fill="none" xmlns="http://www.w3.org/2000/svg">
<g clip-path="url(#clip0_16_764)">
<path d="M53.0011 79.7268C38.2671 79.7268 26.2773 67.7383 26.2773 53.006C26.2773 38.2736 38.2671 26.2852 53.0011 26.2852C67.7351 26.2852 79.7249 38.2736 79.7249 53.006C79.7249 67.7383 67.7351 79.7268 53.0011 79.7268ZM53.0011 31.4197C41.1056 31.4197 31.4125 41.1117 31.4125 53.006C31.4125 64.9002 41.1056 74.5922 53.0011 74.5922C64.8967 74.5922 74.5898 64.9002 74.5898 53.006C74.5898 41.1117 64.8967 31.4197 53.0011 31.4197Z" fill="url(#paint0_linear_16_764)"/>
<path d="M52.9999 106C50.7857 106 48.5479 105.847 46.1688 105.553C45.3091 105.447 44.5671 104.905 44.1784 104.128L39.3848 94.3179C37.3355 93.6466 35.3215 92.8105 33.4017 91.8448L23.0726 95.3896C22.2482 95.6722 21.3413 95.5191 20.6699 94.9892C17.0424 92.1864 13.7917 88.9361 11.0004 85.3207C10.4704 84.6376 10.3291 83.7309 10.6117 82.9183L14.1568 72.5903C13.1793 70.6708 12.3548 68.657 11.6835 66.6079L1.88439 61.8148C1.10705 61.438 0.577052 60.6961 0.459274 59.8364C0.153052 57.5282 0.0117188 55.2318 0.0117188 52.9943C0.0117188 50.7567 0.16483 48.4603 0.459274 46.1521C0.577052 45.2925 1.10705 44.5505 1.88439 44.1737L11.6835 39.3807C12.3548 37.3316 13.1911 35.3296 14.1568 33.3982L10.6117 23.0703C10.3291 22.2577 10.4822 21.3509 11.0004 20.6679C13.7917 17.0407 17.0542 13.7904 20.6699 10.9876C21.3531 10.4577 22.2599 10.3163 23.0726 10.5872L33.4017 14.1319C35.3215 13.1545 37.3237 12.3301 39.3848 11.6589L44.1784 1.84907C44.5553 1.07182 45.3091 0.530103 46.1688 0.424115C50.9388 -0.188261 55.0846 -0.176485 59.8311 0.424115C60.6908 0.530103 61.4328 1.07182 61.8215 1.84907L66.6151 11.6589C68.6644 12.3301 70.6666 13.1663 72.5982 14.1319L82.9273 10.5872C83.7399 10.3046 84.6468 10.4577 85.3299 10.9876C88.9575 13.7904 92.2199 17.0525 94.9995 20.6679C95.5295 21.3509 95.6708 22.2577 95.3882 23.0703L91.8431 33.3982C92.8088 35.306 93.6451 37.308 94.3164 39.3807L104.115 44.1737C104.893 44.5505 105.435 45.3042 105.541 46.1639C105.847 48.5428 105.988 50.7685 105.988 52.9943C105.988 55.22 105.835 57.4458 105.541 59.8246C105.435 60.6843 104.893 61.4262 104.115 61.8148L94.3046 66.6079C93.6215 68.6805 92.7971 70.6825 91.8313 72.5903L95.3764 82.9183C95.659 83.7309 95.5059 84.6376 94.9877 85.3207C92.1964 88.9361 88.9457 92.1981 85.3182 94.9892C84.635 95.5191 83.7164 95.6604 82.9155 95.3896L72.5864 91.8448C70.6666 92.8223 68.6526 93.6466 66.6033 94.3179L61.8097 104.128C61.4328 104.905 60.6791 105.435 59.8193 105.553C57.4402 105.859 55.2142 106 52.9882 106H52.9999ZM48.1828 100.607C51.5042 100.948 54.5075 100.948 57.8053 100.607L62.4693 91.0676C62.7873 90.4317 63.3526 89.937 64.0475 89.7369C66.5091 88.9949 68.9117 88.0057 71.1731 86.781C71.8091 86.4512 72.5393 86.3806 73.2224 86.6161L83.257 90.0548C85.7539 88.0057 88.0388 85.7329 90.0764 83.2362L86.6255 73.2027C86.3899 72.5197 86.4488 71.7777 86.7904 71.1536C87.9917 68.9161 88.9928 66.5254 89.7348 64.0406C89.9351 63.3458 90.4297 62.7805 91.0657 62.4626L100.594 57.8108C100.759 56.1504 100.841 54.5723 100.841 52.9943C100.841 51.4162 100.759 49.8382 100.594 48.1777L91.0657 43.526C90.4179 43.208 89.9351 42.6428 89.7348 41.9479C88.981 39.4631 87.9917 37.0725 86.7904 34.835C86.4488 34.199 86.3899 33.4571 86.6255 32.7859L90.0764 22.7523C88.0506 20.2675 85.7539 17.9828 83.257 15.9337L73.2224 19.3842C72.551 19.6198 71.7973 19.5609 71.1731 19.2194C68.9117 18.0064 66.5091 17.0054 64.0475 16.2635C63.3526 16.0633 62.7873 15.5687 62.4693 14.9327L57.8053 5.39378C54.5075 5.05227 51.4924 5.05227 48.1828 5.39378L43.5306 14.9209C43.2126 15.5687 42.6473 16.0515 41.9524 16.2517C39.4791 16.9936 37.0882 17.9828 34.8386 19.1958C34.2026 19.5373 33.4488 19.5962 32.7893 19.3607L22.7546 15.9102C20.2577 17.9475 17.9728 20.2321 15.9353 22.7287L19.3744 32.7623C19.6099 33.4336 19.5511 34.1872 19.2095 34.8114C17.9964 37.0725 16.9953 39.4631 16.2768 41.9244C16.0648 42.6192 15.5819 43.1845 14.9342 43.5024L5.40594 48.1541C5.24105 49.7793 5.15861 51.3927 5.15861 52.9707C5.15861 54.5488 5.24105 56.1621 5.40594 57.7873L14.9342 62.439C15.5819 62.757 16.0648 63.3222 16.2768 64.0171C17.0071 66.4783 17.9964 68.869 19.2095 71.13C19.5511 71.766 19.6099 72.5079 19.3744 73.1791L15.9353 83.2127C17.9728 85.6975 20.2577 87.9822 22.7546 90.0313L32.7893 86.5925C33.4724 86.357 34.2026 86.4159 34.8386 86.7574C37.0882 87.9704 39.4791 88.9596 41.9524 89.7015C42.6473 89.9017 43.2126 90.3963 43.5306 91.0323L48.1828 100.559V100.607Z" fill="url(#paint1_linear_16_764)"/>
</g>
<defs>
<linearGradient id="paint0_linear_16_764" x1="26.2656" y1="53.006" x2="79.7249" y2="53.006" gradientUnits="userSpaceOnUse">
<stop stop-color="#BA79B1"/>
<stop offset="1" stop-color="#E3606F"/>
</linearGradient>
<linearGradient id="paint1_linear_16_764" x1="-5.90273e-05" y1="52.9943" x2="106" y2="52.9943" gradientUnits="userSpaceOnUse">
<stop stop-color="#BA79B1"/>
<stop offset="1" stop-color="#E3606F"/>
</linearGradient>
<clipPath id="clip0_16_764">
<rect width="106" height="106" fill="white"/>
</clipPath>
</defs>
</svg>
