<svg width="138" height="150" viewBox="0 0 138 150" fill="none" xmlns="http://www.w3.org/2000/svg">
<g clip-path="url(#clip0_16_626)">
<path d="M68.4506 150C56.3887 150 45.9699 141.429 43.6733 129.625C40.0604 128.088 36.5034 126.057 33.1892 123.682C30.7525 124.557 28.0918 124.986 25.4031 124.986C23.1999 124.986 20.9873 124.688 18.8307 124.12C12.3143 122.377 6.87152 118.213 3.50129 112.381C-2.38027 102.208 -0.345065 89.0907 8.34658 81.1813C8.06651 79.1131 7.93581 76.8865 7.93581 74.6972C7.93581 72.6756 8.0385 70.626 8.24389 68.6044C-0.485102 60.8161 -2.55765 47.6523 3.35192 37.4418C6.72215 31.6098 12.1649 27.4455 18.6813 25.7034C20.8379 25.1258 23.0505 24.837 25.2538 24.837C27.8398 24.837 30.3978 25.2376 32.8624 26.0201C36.2047 23.5048 39.939 21.3434 43.832 19.6292C46.2967 8.29141 56.6595 0 68.3946 0C80.1297 0 90.5765 8.35662 93.0692 19.8621C96.6914 21.4272 100.258 23.4861 103.572 25.8897C106.139 24.9208 108.949 24.4364 111.806 24.4364C114.009 24.4364 116.222 24.7252 118.379 25.3028C124.895 27.0449 130.338 31.2092 133.708 37.0412C137.078 42.8731 137.974 49.6553 136.229 56.158C134.894 61.1329 132.13 65.5021 128.237 68.8001C128.48 70.6726 128.583 72.6942 128.583 74.6972C128.583 76.7002 128.48 78.7498 128.284 80.7434C137.209 88.5225 139.375 101.761 133.391 112.102C130.02 117.924 124.578 122.098 118.061 123.84C115.905 124.418 113.692 124.707 111.489 124.707C108.809 124.707 106.149 124.278 103.591 123.421C100.426 125.797 96.8968 127.855 93.1999 129.532C91.062 141.345 80.6245 150 68.4599 150H68.4506ZM44.4669 130.035C46.9129 141.215 56.9582 149.311 68.4506 149.311C79.943 149.311 90.1004 141.14 92.4717 129.849C85.5538 132.877 78.1785 134.554 70.5325 134.833C69.8323 134.908 69.1321 134.945 68.4132 134.945C67.7597 134.945 67.1062 134.917 66.4621 134.852C58.8254 134.628 51.4221 133.017 44.4669 130.035ZM50.3018 121.539C51.8888 125.713 54.8763 129.225 58.7413 131.461C61.6915 133.156 65.0337 134.051 68.4226 134.051C75.3591 134.051 81.8195 130.343 85.2737 124.362C85.7965 123.458 86.2447 122.499 86.6181 121.53C80.8392 123.775 74.7243 124.911 68.4506 124.911C62.1769 124.911 56.0806 123.775 50.3018 121.539ZM44.6256 118.912C44.1494 120.831 43.9067 122.815 43.9067 124.809C43.9067 126.262 44.0374 127.734 44.2988 129.16C49.6763 131.47 55.4458 133.017 61.4207 133.697C60.3471 133.296 59.3015 132.812 58.3026 132.234C53.9801 129.747 50.7405 125.769 49.1815 121.027C47.7064 120.468 46.1567 119.732 44.6349 118.912H44.6256ZM92.2849 118.912C90.7912 119.722 89.2415 120.458 87.673 121.11C87.3183 122.34 86.7488 123.607 86.0486 124.809C83.6866 128.89 80.0177 131.982 75.6205 133.631C81.5487 132.905 87.2996 131.302 92.7237 128.862C92.8731 127.595 92.9945 126.197 92.9945 124.809C92.9945 122.815 92.7517 120.831 92.2756 118.912H92.2849ZM34.1695 123.393C37.1102 125.452 40.2564 127.25 43.5239 128.74C43.3186 127.446 43.2159 126.123 43.2159 124.809C43.2159 122.657 43.4866 120.524 44.0281 118.455C43.692 118.381 43.2906 118.157 42.8891 117.924C41.4234 119.331 39.771 120.57 37.9878 121.595C36.7835 122.294 35.4951 122.899 34.1695 123.393ZM94.1988 117.822C93.7413 118.092 93.2839 118.362 92.8171 118.614C93.4239 120.524 93.704 122.657 93.704 124.8C93.704 126.039 93.6106 127.296 93.4239 128.535C96.6728 127.026 99.8003 125.2 102.732 123.113C101.397 122.61 100.118 122.014 98.8947 121.306C97.1956 120.328 95.6178 119.154 94.1894 117.813L94.1988 117.822ZM8.38393 82.085C0.177742 89.9199 -1.59606 102.189 4.09879 112.037C7.38499 117.71 12.6784 121.763 19.0081 123.449C21.0993 124.008 23.2559 124.297 25.4031 124.297C27.8304 124.297 30.2297 123.933 32.5544 123.225C30.099 121.418 27.7651 119.415 25.6085 117.263C15.9739 107.649 10.027 95.5003 8.39326 82.0943L8.38393 82.085ZM55.7632 103.848C53.588 105.161 51.6274 106.801 49.947 108.72C48.7147 112.549 48.724 116.834 50.0123 120.729C55.8006 123.011 62.0369 124.213 68.4506 124.213C74.8643 124.213 81.1006 123.011 86.9822 120.635C88.1772 116.853 88.1772 112.568 86.9075 108.655C85.143 106.661 83.0425 104.928 80.6805 103.568C79.3922 109.214 74.2108 113.22 68.2732 113.22C62.3356 113.22 57.3783 109.372 55.7632 103.838V103.848ZM104.337 122.936C106.653 123.645 109.052 124.008 111.479 124.008C113.627 124.008 115.774 123.719 117.865 123.16C124.195 121.465 129.488 117.412 132.774 111.748C138.479 101.891 136.537 89.2212 128.181 81.5167C126.65 95.1369 120.685 107.49 110.901 117.254C108.856 119.294 106.653 121.204 104.337 122.936ZM20.7539 110.49C22.4157 112.679 24.2361 114.757 26.1687 116.685C28.4466 118.958 30.9299 121.064 33.544 122.946C34.8696 122.415 36.2887 121.763 37.633 120.999C39.3695 119.993 40.9753 118.791 42.4036 117.421C40.9379 116.732 39.4909 115.744 38.1185 114.701C36.7555 115.055 35.2524 115.223 33.768 115.223C30.2391 115.223 26.7381 114.282 23.6387 112.493C22.6211 111.906 21.6501 111.235 20.7446 110.481L20.7539 110.49ZM98.9601 114.571C97.597 115.623 96.1406 116.62 94.6469 117.542C96.0473 118.614 97.5877 119.76 99.2401 120.71C100.584 121.483 102.013 122.135 103.479 122.648C105.822 120.859 108.165 118.847 110.34 116.685C112.394 114.636 114.317 112.428 116.045 110.108C113.757 112.046 111.05 113.471 108.128 114.244C106.382 114.71 104.608 114.943 102.834 114.943C101.546 114.943 100.239 114.813 98.9601 114.561V114.571ZM48.5746 110.453C46.8382 112.838 45.5592 115.493 44.7843 118.325C46.082 118.921 47.4917 119.601 48.9201 120.216C48.0145 117.03 47.8931 113.667 48.5746 110.453ZM88.3172 110.434C89.0081 113.676 88.9054 117.039 87.9998 120.216C89.4188 119.611 90.8286 118.921 92.1916 118.176C91.342 115.474 90.063 112.838 88.3172 110.443V110.434ZM91.7901 115.213C92.1729 116.136 92.4997 117.086 92.7704 118.045C92.9851 117.729 93.4146 117.477 93.8347 117.226C93.1065 116.685 92.425 115.987 91.7901 115.213ZM43.2812 117.542C43.608 117.542 43.9721 117.747 44.3362 117.952C44.4109 117.235 44.6162 116.48 44.9057 115.726C44.3828 116.359 43.8414 116.965 43.2625 117.542H43.2812ZM39.0334 114.515C40.2751 115.437 41.5634 116.303 42.8798 117.095C44.9057 114.943 46.6234 112.409 47.8558 109.586C45.4098 111.925 42.385 113.62 39.0708 114.515H39.0428H39.0334ZM89.1948 109.661C90.4551 112.428 92.1916 114.897 94.3668 117.011C95.5245 116.182 96.8222 115.297 98.0732 114.356C96.206 113.9 94.4042 113.182 92.7144 112.204C91.454 111.478 90.2777 110.62 89.2041 109.652L89.1948 109.661ZM18.9427 82.439C18.2052 83.3147 17.5517 84.2556 16.9822 85.2338C14.3869 89.7149 13.696 94.9413 15.0404 99.9441C16.3847 104.947 19.5962 109.121 24.0868 111.71C27.0462 113.415 30.3885 114.319 33.768 114.319C34.9257 114.319 36.0833 114.217 37.2316 114.002C35.7565 112.819 34.3468 111.561 33.0492 110.266C25.4031 102.636 20.5298 93.0222 18.9427 82.4483V82.439ZM99.903 113.816C100.874 113.965 101.854 114.04 102.834 114.04C104.534 114.04 106.233 113.816 107.894 113.369C112.908 112.027 117.09 108.822 119.686 104.341C122.281 99.8603 122.972 94.6339 121.627 89.6311C120.909 86.9667 119.676 84.5444 117.958 82.439C116.371 93.0222 111.498 102.636 103.852 110.266C102.61 111.506 101.285 112.698 99.903 113.816ZM30.5192 75.8245C29.931 75.927 29.3522 76.0574 28.7734 76.2065C25.1977 77.166 21.9862 79.1038 19.5029 81.8055C20.9966 92.3794 25.8419 102.087 33.5346 109.773C34.9817 111.217 36.5408 112.595 38.1745 113.862C38.3146 113.779 38.576 113.713 38.828 113.648C42.7304 112.605 46.1473 110.425 48.7147 107.341C48.8267 106.969 48.9574 106.54 49.0694 106.111C49.6296 104.034 49.9097 101.9 49.919 99.7671C48.9201 100.242 47.6971 100.419 46.4741 100.419C41.8155 100.419 37.4837 97.9318 35.1684 93.9165C32.1996 88.7926 33.0772 82.3086 37.3063 78.1535C35.5698 77.3989 33.6747 76.6257 31.7048 76.104C31.3034 75.9922 30.9113 75.899 30.5192 75.8152V75.8245ZM86.9822 100.298C87.0662 102.767 87.5237 105.208 88.3359 107.546C89.6989 109.065 91.3327 110.397 93.1532 111.44C95.0017 112.502 96.9902 113.257 99.0534 113.667C100.491 112.474 101.976 111.161 103.357 109.782C111.059 102.096 115.905 92.3794 117.361 81.675C116.007 80.231 114.383 78.9081 112.572 77.874C110.602 76.7375 108.473 75.9642 106.242 75.573C103.721 76.1319 101.257 77.0915 98.9974 78.4237C103.46 82.3551 104.403 89.156 101.266 94.373C98.9227 98.2579 94.6376 100.68 90.0723 100.68C89.0361 100.68 87.9905 100.55 86.9729 100.307L86.9822 100.298ZM67.7597 100.317C63.904 100.419 60.2257 101.397 56.8368 103.223C58.2185 108.273 62.8864 111.906 68.2732 111.906C73.66 111.906 78.4212 108.208 79.6816 102.897C76.4327 101.323 72.8478 100.401 69.0854 100.307H68.3946H67.7691L67.7597 100.317ZM87.8784 108.757C87.9905 108.878 88.0932 109.018 88.2052 109.149C88.0932 108.888 87.9905 108.627 87.8971 108.366C87.8224 108.291 87.7571 108.217 87.6824 108.142C87.7571 108.347 87.8224 108.552 87.8878 108.757H87.8784ZM49.1068 108.273C49.0414 108.478 48.9667 108.683 48.8827 108.897C48.9294 108.841 48.9761 108.785 49.0227 108.729C49.0694 108.552 49.1254 108.366 49.1908 108.18C49.1628 108.208 49.1348 108.245 49.1068 108.282V108.273ZM55.2497 100.438C53.8214 101.751 52.6077 103.279 51.6368 104.966C51.2633 105.618 50.9179 106.288 50.6192 106.987C52.1316 105.478 53.8307 104.164 55.6792 103.074C55.3991 102.301 55.2684 101.369 55.2591 100.438H55.2497ZM81.306 100.205C81.306 101.146 81.194 102.105 80.9886 103.046C82.8838 104.015 84.6762 105.375 86.2727 106.969C85.143 104.351 83.4346 102.003 81.306 100.121V100.205ZM84.1068 99.6553C84.7323 101.975 85.7499 104.118 87.1596 106.046C86.6274 104.062 86.3287 102.022 86.282 99.9814C85.5445 99.8603 84.7416 99.5342 83.9761 99.1243C84.0134 99.3013 84.0601 99.4783 84.1068 99.6553ZM52.8504 98.733C52.0569 99.1802 51.2914 99.5062 50.5071 99.7671C50.6098 101.714 50.3578 103.782 49.8536 105.813C50.1244 105.422 50.3764 105.021 50.6098 104.612C51.6741 102.767 52.4303 100.792 52.8411 98.733H52.8504ZM58.1999 98.1833C57.6304 98.5374 57.0796 98.9193 56.5381 99.3292C56.5661 99.5435 56.5474 99.8696 56.5474 100.196C56.5474 101.006 56.6314 101.826 56.8088 102.636C59.0027 101.286 61.5234 100.41 64.1655 99.9534C62.1116 99.6087 60.1137 99.0125 58.1999 98.1833ZM72.661 99.9441C75.2004 100.373 77.6557 101.192 79.971 102.376C79.915 101.723 79.9897 100.96 79.9897 100.196C79.9897 99.7764 79.971 99.3572 79.9243 98.9473C79.5509 98.7237 79.1121 98.4349 78.6546 98.1461C76.7408 98.9939 74.7336 99.5901 72.6704 99.9441H72.661ZM55.5018 96.758C54.9883 97.2517 54.4282 97.7082 53.8307 98.1181C53.7 99.1802 53.4293 100.298 53.0652 101.397C53.756 100.596 54.5215 99.8416 55.3338 99.1615C55.3338 98.4256 55.4831 97.6057 55.6979 96.8046L55.5018 96.7673V96.758ZM80.8112 97.0747C81.0539 97.5685 81.1753 98.2486 81.2407 98.938C82.0715 99.5621 82.8744 100.317 83.6213 101.146C83.4813 100.727 83.3506 100.307 83.2385 99.8789C83.1078 99.3944 82.9958 98.91 82.9024 98.4256C82.2583 98.0529 81.6048 97.5312 81.0166 96.9536L80.8205 97.0654L80.8112 97.0747ZM58.9467 97.7455C61.7475 98.9007 64.7069 99.5249 67.7504 99.5994H68.4413H69.0761C72.1196 99.5156 75.0884 98.8821 77.8984 97.7175C75.0137 96.1152 71.7648 95.2674 68.4786 95.2674C65.1924 95.2674 61.8595 96.1245 58.9467 97.7455ZM97.9985 79.0199C95.6272 80.5757 93.5546 82.5228 91.8462 84.8053C91.0713 86.6313 90.063 88.392 88.8587 90.0037C87.6637 92.8545 87.0195 95.8916 86.9635 99.0311C87.9064 99.1895 88.9894 99.3479 90.0817 99.3479C94.1801 99.3479 98.0358 97.1772 100.146 93.6836C103.012 88.9137 102.116 82.7744 97.9985 79.0293V79.0199ZM38.3426 78.9547C34.4215 82.6998 33.5813 88.5597 36.298 93.2458C38.3799 96.8511 42.2823 99.087 46.4647 99.087C47.6597 99.087 48.8454 98.9007 49.9843 98.5374C49.7603 95.6214 49.0601 92.6495 47.8091 89.8454C46.7448 88.4013 45.8206 86.8176 45.083 85.1593C43.2532 82.6812 40.9846 80.5851 38.3519 78.9454L38.3426 78.9547ZM18.3919 76.253C16.5434 76.8027 14.751 77.5666 13.0705 78.5355C11.6328 79.3646 10.2698 80.3428 9.04677 81.4328C9.76563 87.4418 11.3807 93.3482 13.8734 98.91C12.8931 94.0004 13.7053 89.0628 16.1887 84.768C16.9262 83.4917 17.8131 82.2992 18.812 81.1999C18.56 79.6255 18.4386 77.9299 18.3919 76.253ZM87.4957 91.6806C86.2633 93.0688 84.891 94.3264 83.3786 95.4258C83.4626 96.0313 83.5279 96.7486 83.64 97.466C83.7333 97.466 83.892 97.5778 84.0601 97.671C84.8069 98.1181 85.6098 98.4815 86.4594 98.7609C86.338 96.4226 86.7395 94.0004 87.4957 91.6713V91.6806ZM49.2655 91.6806C50.0217 93.9072 50.4698 96.2083 50.5725 98.5467C51.058 98.174 51.7021 97.8759 52.2996 97.5312C52.5984 97.3635 52.8784 97.1772 53.1585 96.9816C53.1679 96.4692 53.2052 95.845 53.2145 95.2301C51.7955 94.2519 50.4605 93.0315 49.2561 91.6806H49.2655ZM118.5 75.9922C118.463 77.7623 118.332 79.5416 118.108 81.2931C120.171 83.5476 121.665 86.3052 122.486 89.3889C123.28 92.3421 123.392 95.4258 122.841 98.379C125.278 92.7893 126.827 86.8735 127.453 80.7714C126.351 79.905 125.1 79.0199 123.784 78.2653C122.113 77.3058 120.339 76.5418 118.5 76.0015V75.9922ZM56.7528 98.0622C56.9769 97.9039 57.2103 97.7455 57.4437 97.5964C57.369 97.6337 57.3036 97.6523 57.2289 97.6523C57.1076 97.6523 56.9862 97.6057 56.8555 97.5498C56.8182 97.7175 56.7808 97.8852 56.7435 98.0622H56.7528ZM79.3922 97.8107L79.7656 97.9039C79.7469 97.82 79.7283 97.7362 79.7096 97.6523L79.3922 97.8107ZM68.2732 88.5038C63.0732 88.5038 58.4519 91.9881 57.0142 96.9722C57.2849 96.9909 57.6397 97.1586 57.9945 97.3263C61.0566 95.3885 64.7349 94.3637 68.4786 94.3637C72.0262 94.3637 75.5271 95.3046 78.608 97.0747L78.9814 97.2983C79.1121 97.1679 79.3735 97.0375 79.6349 96.907C78.1598 92.0253 73.5199 88.4945 68.2732 88.4945V88.5038ZM82.0155 96.3574C82.2209 96.3853 82.4263 96.5157 82.641 96.6741C82.6224 96.4505 82.6037 96.2176 82.585 95.9847C82.3983 96.1152 82.2116 96.2363 82.0155 96.3574ZM54.0828 96.2828C54.2041 96.171 54.3255 96.0686 54.4469 95.9568L54.1014 95.8543C54.1014 95.994 54.0921 96.1431 54.0828 96.2828ZM90.119 75.9642C89.1668 75.9642 88.2052 76.0853 87.2623 76.3182C84.2281 77.0729 81.6701 78.964 80.055 81.6471C77.3009 86.212 77.9918 92.0533 81.7355 95.8543C81.9128 95.6121 82.2583 95.3792 82.6037 95.1463C82.4263 91.5129 83.3692 87.7958 85.2644 84.5165C87.1409 81.2745 89.8763 78.61 93.1718 76.8306L93.1438 76.2623C92.2289 76.1226 91.174 75.9829 90.119 75.9829V75.9642ZM46.4367 75.7127C45.4471 75.7127 44.4575 75.8431 43.5053 76.0853C43.6266 76.3928 43.664 76.8306 43.7013 77.2778L43.9534 77.3523C48.6493 80.054 52.0102 84.4326 53.4199 89.6683C53.9054 91.4664 54.1388 93.3203 54.1201 95.1742C54.3442 95.2581 54.6336 95.4537 54.923 95.64C58.4706 91.9229 59.2361 86.1282 56.5941 81.5633C55.0257 78.8616 52.505 76.9238 49.4802 76.1133C48.4813 75.8431 47.4637 75.7127 46.4367 75.7127ZM92.9851 77.9486C90.1097 79.6348 87.7104 82.057 86.0299 84.945C84.3402 87.8703 83.4346 91.1776 83.4252 94.5221C85.2551 93.1153 86.8888 91.4757 88.2612 89.6218C88.6533 88.6901 89.1201 87.7585 89.6336 86.8735C90.119 86.035 90.6605 85.2152 91.2487 84.414C92.1076 82.3644 92.6957 80.1845 92.9758 77.9393L92.9851 77.9486ZM43.8227 78.3212C44.1401 80.5757 44.7656 82.7744 45.6899 84.8519C46.222 85.5692 46.7355 86.3518 47.2023 87.1623C47.6504 87.9355 48.0518 88.7367 48.4159 89.5379C49.7696 91.3639 51.3847 93.0222 53.2052 94.4289C53.1679 92.9104 52.9438 91.3918 52.5424 89.9013C51.2353 85.0289 48.1358 80.9298 43.8134 78.3212H43.8227ZM59.0868 84.2836C59.6562 86.5567 59.5909 88.9137 58.9094 91.1589C60.5525 89.4634 62.5877 88.2616 64.8563 87.6467C62.6811 87.0319 60.7019 85.886 59.0961 84.2836H59.0868ZM71.8488 87.6933C74.0054 88.3082 75.9473 89.4634 77.5343 91.0658C76.9555 88.951 76.9182 86.7524 77.4223 84.6376C75.8352 86.1002 73.9307 87.1437 71.8488 87.7026V87.6933ZM68.4319 63.201C61.9622 63.201 56.6968 68.4554 56.6968 74.9115C56.6968 81.3676 61.9622 86.622 68.4319 86.622C74.9016 86.622 80.167 81.3676 80.167 74.9115C80.167 68.4554 74.9016 63.201 68.4319 63.201ZM40.5738 77.2778C39.911 77.6598 39.2855 78.107 38.7253 78.6007C40.7699 79.6721 42.6184 81.2186 44.2335 83.0352C43.6547 81.3397 43.2625 79.5882 43.0572 77.8181C42.4783 77.5666 41.8248 77.2592 41.1433 76.9797C40.9566 77.0729 40.7605 77.1753 40.5738 77.2871V77.2778ZM94.8616 76.9704C94.4509 77.1474 94.0587 77.3523 93.6573 77.5573C93.5359 79.2622 93.1718 81.0229 92.6117 82.7464C94.0774 81.1068 95.7485 79.6534 97.6064 78.433C97.1396 78.284 96.6448 77.9393 96.122 77.6225C95.7112 77.371 95.2911 77.1567 94.8616 76.9704ZM25.3004 75.2376C23.1625 75.2376 21.034 75.5171 18.9707 76.076C19.1014 77.5014 19.2135 79.0479 19.3909 80.5851C21.8182 78.1535 24.843 76.3648 28.1759 75.4146C27.2143 75.3028 26.2527 75.2376 25.3004 75.2376ZM108.548 75.1537C110.107 75.6102 111.601 76.2437 113.01 77.0635C114.672 78.0231 116.175 79.1876 117.492 80.5478C117.669 78.9454 117.772 77.3151 117.8 75.6847C115.83 75.2655 113.683 74.9767 111.545 74.9767C110.564 74.9767 109.566 75.0419 108.557 75.163L108.548 75.1537ZM8.96275 69.2752C8.80404 71.0825 8.72002 72.8899 8.72002 74.6506C8.72002 76.607 8.82271 78.5821 9.00943 80.5385C10.1671 79.551 11.4181 78.6752 12.7251 77.9299C14.5456 76.8865 16.4781 76.0667 18.4853 75.4891L18.3733 74.9115V74.1476C16.4314 73.719 14.4429 72.8806 12.585 71.8092C11.3154 71.0825 10.1017 70.2255 8.97208 69.2845L8.96275 69.2752ZM118.407 75.2282C120.395 75.7872 122.318 76.607 124.129 77.6411C125.324 78.3305 126.463 79.1131 127.528 79.9795C127.686 78.1908 127.761 76.3928 127.761 74.6413C127.761 72.8899 127.677 71.1012 127.528 69.3125C126.557 70.0764 125.52 70.7844 124.456 71.39C122.552 72.4893 120.516 73.3277 118.397 73.9053L118.519 74.8929L118.416 75.2189L118.407 75.2282ZM49.4429 74.7438C51.7581 75.2935 53.9054 76.4766 55.5858 78.1349C55.3151 77.0822 55.1844 76.0015 55.1844 74.9022C55.1844 73.719 55.3431 72.5452 55.6512 71.4179C54.0174 73.0017 51.9915 74.1196 49.7603 74.6693C49.6482 74.6972 49.5456 74.7252 49.4429 74.7438ZM81.334 71.8278C81.5768 72.834 81.6981 73.8681 81.6981 74.9022C81.6981 75.9363 81.5768 76.9983 81.3247 78.0231C82.9024 76.5791 84.835 75.545 86.9448 75.0233C87.0102 75.0047 87.0662 74.9953 87.1222 74.9767C87.0475 74.9581 86.9635 74.9394 86.8888 74.9115C84.7976 74.3525 82.8838 73.2905 81.334 71.8278ZM96.8035 76.4859C97.457 76.8772 98.0918 77.343 98.6893 77.8647C100.379 76.7561 102.33 75.899 104.384 75.2935C104.319 75.2935 104.263 75.2841 104.197 75.2748C103.731 75.3121 103.245 75.3307 102.76 75.3307C102.321 75.3307 101.873 75.3121 101.434 75.2841C99.7536 75.4053 98.0918 75.75 96.4954 76.2996C96.5981 76.3555 96.7008 76.4207 96.8035 76.4766V76.4859ZM32.405 75.5543C34.3842 76.1319 36.1393 76.8772 37.7824 77.7995C38.2305 77.2685 38.856 76.784 39.5189 76.3648C37.6704 75.7872 35.7472 75.4984 33.8147 75.4984C33.3479 75.4984 32.8718 75.5171 32.405 75.5543ZM42.2636 76.458C42.5717 76.5977 42.8798 76.7561 43.1879 76.9145C42.9918 76.7561 42.9451 76.4952 42.9265 76.2251C42.7024 76.2996 42.4877 76.3741 42.2729 76.458H42.2636ZM93.7973 76.7002L93.8814 76.5605L93.8067 76.5325V76.6909L93.7973 76.7002ZM37.5957 74.9581C38.6226 75.1537 39.6402 75.4332 40.6392 75.7872C41.3207 75.3959 42.1422 75.0699 42.9918 74.8463L42.8891 74.4177C42.4037 74.3805 41.8248 74.1662 41.2647 73.9147C40.5645 74.1848 39.8456 74.4271 39.1081 74.6227C38.604 74.7531 38.0998 74.8742 37.5957 74.9581ZM95.8326 74.101C95.151 74.4177 94.4602 74.6786 93.7693 74.8742L93.872 75.2841C94.3388 75.3214 94.9083 75.5357 95.4591 75.7779C96.346 75.3866 97.3356 75.0792 98.3626 74.837C97.513 74.6506 96.6634 74.3991 95.8419 74.101H95.8326ZM19.0641 75.2935C19.6989 75.1351 20.4458 74.986 21.2207 74.8556C20.4925 74.7438 19.7736 74.5947 19.0641 74.4177V75.2935ZM115.223 74.5295C116.147 74.6693 117.072 74.8556 117.977 75.0978L117.8 74.8929V74.0451C116.95 74.2501 116.082 74.4084 115.223 74.5295ZM93.3492 75.0326L93.3119 74.9953C93.3119 74.9953 93.2745 75.0047 93.2465 75.014C93.2839 75.0233 93.3119 75.0326 93.3492 75.0419V75.0326ZM30.0057 74.9674C30.0057 74.9674 30.043 74.9674 30.0617 74.9581C29.8376 74.9208 29.6136 74.8742 29.3895 74.8183C29.3428 74.8183 29.3055 74.837 29.2588 74.837C29.5109 74.8742 29.763 74.9208 30.0057 74.9674ZM43.58 74.837C43.58 74.837 43.6547 74.7531 43.7013 74.7252C43.664 74.7159 43.6173 74.7065 43.58 74.6972V74.837ZM19.3815 69.2752C19.2135 70.7844 19.1108 72.3216 19.0734 73.8215C20.9873 74.2128 23.0692 74.4829 25.1511 74.4829C25.9913 74.4829 26.8315 74.4364 27.6717 74.3525C26.29 73.9053 24.9457 73.3184 23.6853 72.5918C22.0982 71.6788 20.6605 70.5702 19.3815 69.2752ZM31.7515 74.3059C32.4423 74.3805 33.1332 74.4177 33.824 74.4177C35.5232 74.4177 37.2223 74.1942 38.8747 73.747C39.3135 73.6259 39.7429 73.4954 40.1724 73.3464C40.079 73.2905 39.9857 73.2439 39.9017 73.188C39.2015 72.7688 38.548 72.2843 37.9318 71.744C36.0086 72.8619 33.9267 73.719 31.7515 74.3059ZM99.4735 71.5484C98.6613 72.3589 97.7557 73.0576 96.7755 73.6165C98.1852 73.9519 99.8096 74.278 101.443 74.3898C101.901 74.3525 102.386 74.3339 102.872 74.3339C103.32 74.3339 103.768 74.3525 104.216 74.3805C104.879 74.3246 105.551 74.2407 106.205 74.1289C103.833 73.5886 101.574 72.7222 99.4735 71.5484ZM110.004 74.0078C110.62 74.0544 111.246 74.0824 111.862 74.0824C113.888 74.0824 115.914 73.8308 117.893 73.3277C117.753 71.9862 117.641 70.5236 117.473 69.0889C115.4 71.2596 112.833 72.9458 110.004 74.0171V74.0078ZM81.9315 54.1364C78.2252 57.8815 77.469 63.6482 80.111 68.2132C81.6794 70.9149 84.2095 72.8526 87.2249 73.6631C88.2239 73.9333 89.2415 74.0637 90.2684 74.0637C91.2953 74.0637 92.2849 73.9333 93.2559 73.6724C93.1345 73.4768 93.1158 73.1414 93.0878 72.806L92.6304 72.6197C86.1513 68.8839 82.2583 61.9154 82.4823 54.4252C82.333 54.3879 82.1369 54.2668 81.9315 54.1364ZM38.0065 36.1002C36.4381 37.33 34.9257 38.6715 33.5253 40.0689C25.8139 47.7641 20.9686 57.4902 19.5216 68.1945C20.8379 69.564 22.397 70.8217 24.1335 71.8185C25.9539 72.8712 27.9051 73.6072 29.9403 74.0265C30.4445 73.9147 30.9953 73.7936 31.5461 73.6445C33.6653 73.0762 35.6819 72.2377 37.5584 71.1571C33.1612 67.1511 32.3023 60.5646 35.4298 55.3568C37.2223 52.3849 40.0697 50.2795 43.4493 49.441C44.4949 49.1802 45.5592 49.0498 46.6141 49.0498C47.7251 49.0498 48.836 49.1895 49.9096 49.4783C49.6856 47.1213 49.2655 44.6525 48.4813 42.2769C47.0996 40.7118 45.4285 39.3423 43.552 38.2523C41.8155 37.2555 39.9483 36.5288 37.9971 36.1002H38.0065ZM90.2404 49.3665C94.899 49.3665 99.2215 51.8539 101.546 55.8599C104.412 60.8068 103.721 66.9555 99.8469 71.1664C102.33 72.3495 105.056 73.2998 107.913 73.7656C111.563 72.7688 114.85 70.7378 117.361 67.8871C115.839 57.3691 111.013 47.7175 103.348 40.0783C101.92 38.6436 100.379 37.2927 98.792 36.0537C98.5306 36.1561 98.1478 36.24 97.7744 36.3518C94.1988 37.3113 90.9966 39.2398 88.5133 41.9415C87.6824 44.4848 87.2623 47.1772 87.2903 49.9068C88.1398 49.5156 89.1948 49.3851 90.2497 49.3851L90.2404 49.3665ZM55.0724 53.9687C54.7456 54.1737 54.4282 54.3879 54.1108 54.6115C54.2788 58.2169 53.3359 61.9154 51.4501 65.1668C49.5829 68.4088 46.8662 71.0546 43.5986 72.8247L43.6173 73.4675C44.5229 73.5979 45.5592 73.7377 46.5954 73.7377C47.5477 73.7377 48.5093 73.6165 49.4429 73.3836C52.477 72.629 55.035 70.7378 56.6501 68.0548C59.3668 63.5364 58.7227 57.7511 55.0724 53.9501V53.9687ZM93.844 73.6724C93.8907 73.5513 94.0027 73.4675 94.1428 73.4023C94.0307 73.3464 93.928 73.2998 93.816 73.2439L93.844 73.6724ZM14.3308 49.4969C11.5114 55.4966 9.73762 61.8968 9.05611 68.5485C10.2137 69.4895 11.5394 70.4397 12.9491 71.2502C14.7323 72.275 16.6275 73.0762 18.588 73.6259C18.4479 72.0235 18.5786 70.2907 18.7934 68.6044C14.0788 63.4898 12.4263 56.1673 14.3308 49.4876V49.4969ZM122.561 50.3167C123.803 55.4034 123.046 60.6857 120.414 65.2413C119.742 66.4151 118.948 67.5144 118.061 68.5113C118.313 70.0298 118.444 71.716 118.491 73.393C120.339 72.7036 122.29 71.8931 124.111 70.8496C125.306 70.1602 126.445 69.3684 127.518 68.4926C126.827 62.2415 125.175 56.1021 122.561 50.3167ZM43.1318 73.2625L43.0758 73.1507L42.9731 73.2066L43.1318 73.2625ZM91.9395 65.1295C92.8918 67.412 93.5079 69.8249 93.76 72.3123C94.2268 72.4893 94.7869 72.7595 95.3471 72.9924C95.5338 72.8526 95.8419 72.6942 96.1313 72.5266C96.9809 72.0421 97.7557 71.4459 98.4559 70.7751C95.9446 69.4056 93.7507 67.4585 91.9395 65.1295ZM44.3268 66.4897C42.7677 68.3063 40.9659 69.8714 38.9587 71.1664C39.4815 71.3807 40.023 71.7719 40.5925 72.1073C41.0126 72.3589 41.4421 72.5825 41.8808 72.7781C42.2263 72.5731 42.6744 72.3495 43.1132 72.1166C43.2532 70.2534 43.6733 68.3436 44.3268 66.4897ZM83.3879 55.1891C83.4346 62.0645 87.1316 68.4461 93.0972 71.8744C92.2849 65.4183 88.7747 59.2789 83.3879 55.1891ZM53.2892 55.273C51.2727 56.8195 49.5175 58.6547 48.0612 60.7416C47.7717 61.3658 47.4357 61.9993 47.0716 62.6234C46.7075 63.2569 46.3154 63.8718 45.9046 64.4587C44.831 66.7505 44.1214 69.2007 43.7947 71.7347C46.6328 70.0578 49.0134 67.6542 50.6845 64.7662C52.365 61.8595 53.2612 58.5895 53.2892 55.273ZM46.6421 50.4006C45.6899 50.4006 44.7283 50.5217 43.7854 50.7546C40.7512 51.5092 38.1839 53.4004 36.5781 56.0835C33.74 60.7975 34.6082 66.9368 38.6507 70.6726C41.1713 68.9398 43.4679 66.7319 45.3164 64.0954C45.9139 62.8191 46.6421 61.5614 47.4637 60.3782C48.8827 57.3412 49.6576 54.0898 49.7509 50.7173C48.7987 50.559 47.7251 50.4006 46.6421 50.4006ZM90.2591 50.708C89.2321 50.708 88.2145 50.8385 87.2156 51.1086C87.5237 54.8351 88.616 58.5057 90.5671 61.8781C92.593 65.381 95.4871 68.3436 98.9227 70.4584C100.09 69.0796 101.079 67.3281 101.593 65.4276C102.405 62.4092 101.985 59.2603 100.426 56.5586C98.8574 53.8569 96.3367 51.9191 93.3119 51.1086C92.3129 50.8385 91.286 50.708 90.2684 50.708H90.2591ZM104.197 26.3462C106.559 28.0976 108.819 30.0447 110.901 32.1315C120.694 41.9042 126.669 54.2668 128.19 67.915C131.757 64.7475 134.296 60.6205 135.547 55.9717C137.246 49.646 136.369 43.0501 133.092 37.3859C129.815 31.7216 124.522 27.6598 118.182 25.9735C116.091 25.4146 113.935 25.1258 111.787 25.1258C109.211 25.1258 106.653 25.5357 104.188 26.3462H104.197ZM25.2538 25.5264C23.1065 25.5264 20.9593 25.8059 18.8587 26.3741C12.5197 28.0697 7.23562 32.1222 3.94941 37.7865C-1.67075 47.5126 0.177743 60.0988 8.32791 67.8126C9.86832 54.2109 15.8432 41.8763 25.6085 32.1315C27.6437 30.1006 29.8283 28.2094 32.0969 26.5046C29.875 25.8524 27.5784 25.5264 25.2631 25.5264H25.2538ZM33.8987 35.6903C32.2089 35.6903 30.5005 35.9139 28.8387 36.3611C23.8254 37.7026 19.6429 40.9074 17.0382 45.3885C12.9772 52.4129 13.7427 61.254 18.9334 67.4772C20.5112 56.8847 25.3845 47.2517 33.0492 39.6124C34.3375 38.3268 35.7005 37.1064 37.1289 35.9605C36.046 35.7742 34.963 35.681 33.8894 35.681L33.8987 35.6903ZM99.7629 35.9605C101.201 37.1157 102.573 38.3454 103.861 39.6218C111.461 47.2051 116.325 56.7542 117.94 67.2536C118.575 66.4617 119.144 65.6419 119.639 64.7848C122.234 60.3037 122.925 55.0773 121.581 50.0745C120.236 45.0717 117.025 40.8981 112.534 38.3082C109.575 36.6033 106.233 35.6996 102.853 35.6996C101.835 35.6996 100.799 35.7835 99.7723 35.9512L99.7629 35.9605ZM59.2641 58.9994C59.7963 61.1422 59.7683 63.3687 59.1988 65.4928C60.7859 63.9557 62.7091 62.8377 64.819 62.2322C62.7277 61.6359 60.8232 60.5273 59.2641 58.9994ZM72.0262 62.2228C74.1081 62.8004 76.0126 63.8904 77.5904 65.3904C77.0769 63.1917 77.1422 60.9186 77.7864 58.7386C76.1993 60.3969 74.2295 61.5893 72.0262 62.2228ZM58.0598 52.3943C57.6957 52.562 57.3503 52.7296 56.9955 52.916C58.4333 57.8629 63.0918 61.4217 68.3852 61.4217C73.6786 61.4217 78.3372 57.8535 79.7003 52.7483C79.3642 52.7017 78.9441 52.4967 78.5239 52.3104C75.4991 54.183 71.8768 55.1705 68.2079 55.1705C64.5389 55.1705 61.1593 54.2296 58.0785 52.4595L58.0598 52.3943ZM86.6461 51.2856C85.8712 51.5372 85.115 51.8726 84.4148 52.2732C84.0881 52.4595 83.7707 52.6737 83.4626 52.888C83.4626 53.3352 83.4159 53.8755 83.3972 54.4159C85.3111 55.7295 87.0382 57.3971 88.5133 59.2882C87.449 56.7449 86.8235 54.0525 86.6461 51.2856ZM50.4231 51.0434C50.3298 53.5402 49.863 55.9903 49.0414 58.338C50.3111 56.8567 51.7581 55.5245 53.3359 54.3693C53.2519 53.7544 53.1865 53.0184 53.0838 52.2918C52.9811 52.2918 52.8224 52.18 52.6544 52.0775C51.9542 51.6583 51.2073 51.3043 50.4325 51.0434H50.4231ZM59.0494 51.9657C61.8595 53.4749 65.0243 54.2761 68.2172 54.2761C71.41 54.2761 74.7056 53.4563 77.5624 51.9005C75.3964 51.0434 73.1278 50.4938 70.7939 50.2609C70.0283 50.3354 69.2161 50.3726 68.3946 50.3726C67.573 50.3726 66.7701 50.3354 65.9766 50.2609C63.596 50.4938 61.262 51.062 59.0588 51.9657H59.0494ZM54.1574 54.0525C54.1948 53.7637 54.4562 53.5867 54.7269 53.419C54.5122 53.3911 54.2975 53.2514 54.0828 53.093C54.1108 53.4097 54.1388 53.7358 54.1574 54.0525ZM82.3236 53.8103L82.7344 53.8662C82.6224 53.801 82.5757 53.7078 82.557 53.5961C82.473 53.6613 82.3983 53.7358 82.3236 53.8103ZM80.8859 53.3818C80.8859 53.3818 80.9046 53.3538 80.9232 53.3445H80.8952C80.8952 53.3445 80.8952 53.3725 80.8952 53.3818H80.8859ZM83.7613 47.9877C83.0331 48.8541 82.2209 49.6646 81.3434 50.3913C81.362 51.1738 81.2313 52.0589 81.0166 52.916L81.3994 53.0184C81.7075 52.5713 82.2396 52.1427 82.7998 51.7514C82.9678 50.5031 83.3039 49.2268 83.7613 47.9877ZM53.0091 48.3324C53.1865 48.8262 53.3452 49.3199 53.4759 49.8323C53.6066 50.3261 53.728 50.8291 53.8214 51.3322C54.4935 51.7235 55.1844 52.2825 55.8006 52.888C55.5485 52.152 55.4271 51.3508 55.3804 50.5497C54.5589 49.9348 53.756 49.1709 53.0091 48.3417V48.3324ZM56.8275 51.6676C56.8648 51.8912 56.9115 52.1241 56.9582 52.3477L57.5277 51.8726C57.5277 51.8726 57.4623 51.8726 57.4343 51.8726C57.2289 51.8726 57.0235 51.7794 56.8275 51.6583V51.6676ZM79.2895 52.0123C79.5229 52.0123 79.7656 52.1334 79.999 52.2545C79.915 52.0309 79.9337 51.7514 79.971 51.4533C79.6816 51.6583 79.3828 51.8539 79.0841 52.0496C79.1494 52.0216 79.2241 52.0123 79.2895 52.0123ZM56.8555 47.5964C56.7248 48.2951 56.6594 49.0125 56.6594 49.7298C56.6594 50 56.6688 50.2702 56.6875 50.5403C57.1729 50.8385 57.7424 51.2204 58.3399 51.5651C59.9363 50.8105 61.7101 50.2609 63.5399 49.9068C61.2153 49.4503 58.9747 48.6771 56.8555 47.5871V47.5964ZM73.2212 49.9162C74.995 50.2515 76.7221 50.7826 78.3839 51.4999C78.9067 51.1179 79.5322 50.6894 80.139 50.2236C80.0924 50.1304 80.1017 49.9348 80.1017 49.7391C80.1017 49.0218 80.0363 48.3045 79.9056 47.6057C77.7957 48.6957 75.5458 49.469 73.2212 49.9255V49.9162ZM87.4116 43.283C86.8795 43.9724 86.4034 44.6898 85.9739 45.4164C84.9376 47.2051 84.2001 49.1243 83.7893 51.1366C84.7043 50.6149 85.6845 50.1956 86.6928 49.9068C86.5621 47.7548 86.8328 45.491 87.4116 43.283ZM49.6482 43.7954C50.1524 45.7518 50.4138 47.7641 50.4418 49.7764C51.1793 49.9068 51.9822 50.2329 52.7664 50.6428C52.7197 50.4472 52.6731 50.2609 52.617 50.0652C52.0009 47.7827 51.0113 45.6773 49.6482 43.7861V43.7954ZM68.3852 38.0473C62.9518 38.0473 58.2652 41.7365 56.9955 47.0095C59.7496 48.3417 62.8024 49.264 65.9859 49.5715C66.7608 49.4969 67.573 49.4597 68.3946 49.4597C69.2161 49.4597 70.0283 49.4969 70.8219 49.5715C73.9867 49.264 77.0302 48.3417 79.859 46.8511C78.5146 41.7365 73.828 38.0473 68.3946 38.0473H68.3852ZM50.6378 43.0967C51.7581 45.5189 53.3452 47.643 55.3618 49.4131C55.3804 48.5467 55.4925 47.6803 55.6885 46.8418C53.8867 45.9009 52.1783 44.6059 50.6472 43.0967H50.6378ZM85.6005 43.5998C84.2095 44.8947 82.669 46.0406 81.0166 47.0002C81.25 47.6244 81.362 48.3883 81.3994 49.1709C82.8464 47.848 84.0788 46.3108 85.0684 44.5966C85.2551 44.2705 85.4418 43.9352 85.6098 43.5998H85.6005ZM68.3852 36.7337C74.2948 36.7337 79.4762 40.7118 80.9793 46.4226C82.8558 45.1183 84.7509 43.5905 86.4034 41.8111C87.8598 38.0287 88.0745 33.883 87.0009 29.8863C86.9355 29.6348 86.8515 29.374 86.7768 29.1317C81.0073 26.8772 74.8083 25.6847 68.4413 25.6847C62.0742 25.6847 55.5392 26.9331 49.5549 29.4019C48.5933 32.7464 48.5373 36.417 49.4802 39.9199C49.6109 40.4043 49.7603 40.8795 49.9283 41.3453C51.6554 43.3017 53.7093 44.9972 55.9966 46.3387C57.2943 40.7211 62.4757 36.7431 68.3852 36.7431V36.7337ZM88.2239 40.749C87.9438 41.1124 87.6544 41.4571 87.3463 41.8018C87.3183 41.8763 87.2903 41.9508 87.2716 42.0253C87.5423 41.7086 87.8224 41.3918 88.1118 41.0844C88.1492 40.9726 88.1865 40.8701 88.2239 40.749ZM48.9481 41.513C48.9481 41.513 49.0414 41.6061 49.0788 41.6527C49.0227 41.5036 48.9761 41.3546 48.9294 41.2055C48.8734 41.1403 48.8174 41.0751 48.7613 41.0099L48.9481 41.513ZM33.0212 26.812C30.5938 28.5914 28.2879 30.5757 26.1593 32.6998C23.5826 35.2711 21.2394 38.0753 19.1761 41.0565C21.7341 38.3827 24.9457 36.4729 28.596 35.504C30.3324 35.0382 32.1062 34.8053 33.8801 34.8053C35.3084 34.8053 36.7368 34.9543 38.1278 35.2618C39.4069 34.2184 40.8726 33.2122 42.3756 32.2899C40.8912 31.0881 39.2481 29.8491 37.4743 28.8336C36.046 28.0138 34.5522 27.3337 33.0118 26.8213L33.0212 26.812ZM102.834 34.8146C106.363 34.8146 109.864 35.7555 112.964 37.5349C114.42 38.3734 115.755 39.3795 116.95 40.5347C114.971 37.7399 112.758 35.1127 110.331 32.6998C108.128 30.5012 105.729 28.461 103.217 26.6257C102.05 27.1287 100.771 27.725 99.5575 28.4237C97.6624 29.523 95.9166 30.8552 94.3855 32.4017C95.9072 33.1191 97.4196 34.1532 98.8574 35.2525C100.09 34.945 101.471 34.8053 102.834 34.8053V34.8146ZM38.9401 35.4388C40.7045 35.8953 42.413 36.594 44.0187 37.5163C45.3351 38.2802 46.5768 39.1839 47.6971 40.218C46.5021 37.4697 44.831 35.0009 42.7304 32.8675C41.4421 33.6594 40.1724 34.5165 38.9401 35.4295V35.4388ZM87.8598 29.6348C88.784 33.1563 88.784 36.6778 87.9158 40.013C89.8576 37.479 91.258 34.6376 92.0889 31.5633C90.7539 30.9484 89.3068 30.2497 87.8598 29.6348ZM94.0027 32.7837C92.0142 34.8798 90.4364 37.2834 89.2881 39.9385C91.6314 37.861 94.4695 36.3331 97.5317 35.5133L97.9051 35.4202C96.6448 34.4792 95.3284 33.5942 93.9934 32.7837H94.0027ZM48.556 29.8304C47.2209 30.4174 45.8952 31.0695 44.6256 31.7775C45.4565 34.4513 46.7168 37.0691 48.4346 39.4541C47.6971 36.2679 47.7437 32.9607 48.556 29.8304ZM43.1785 32.5974C43.748 33.0073 44.2895 33.5476 44.7843 34.1438C44.5229 33.4544 44.2895 32.765 44.0934 32.057C43.7854 32.234 43.4773 32.411 43.1785 32.588V32.5974ZM92.677 32.0104C92.4903 32.6812 92.2663 33.352 92.0235 34.0041C92.4903 33.4079 92.9851 32.8396 93.5079 32.2899C93.4893 32.2899 93.4799 32.2899 93.4613 32.2899C93.2092 32.2899 92.9478 32.1595 92.6677 32.0104H92.677ZM33.7027 26.3089C35.1217 26.8213 36.5034 27.4641 37.8198 28.2187C39.6776 29.2901 41.386 30.5851 42.8985 32.0756C43.1505 31.8055 43.5706 31.5633 43.9907 31.321C43.3932 29.4392 43.1318 27.3244 43.1318 25.191C43.1318 23.6538 43.2719 22.126 43.552 20.6167C40.107 22.1912 36.7928 24.101 33.7027 26.3089ZM93.2279 20.7565C93.4893 22.2284 93.62 23.7097 93.62 25.191C93.62 27.2964 93.3586 29.3926 92.8358 31.4235C93.1718 31.498 93.5826 31.7216 93.9841 31.9639C95.4124 30.3615 97.2236 28.9547 99.2028 27.8275C100.351 27.166 101.583 26.5791 102.844 26.0947C99.8096 24.1848 96.5888 22.3216 93.2279 20.7658V20.7565ZM61.8875 15.6326C55.7632 16.2754 49.8443 17.8405 44.2521 20.3C43.9907 21.8278 43.8227 23.5048 43.8227 25.191C43.8227 27.2219 44.0748 29.2435 44.5696 31.2092C45.8019 30.3335 47.305 29.5975 48.8454 28.9454C49.2188 27.548 49.8443 26.1133 50.6285 24.7624C53.1492 20.4025 57.1169 17.1977 61.8782 15.6419L61.8875 15.6326ZM74.6122 15.6326C75.9192 16.0611 77.1796 16.6387 78.3932 17.3281C82.8184 19.8808 86.0953 23.9612 87.617 28.8243C89.1574 29.4019 90.7912 30.1845 92.3876 31.0509C92.6677 29.2063 92.9198 27.194 92.9198 25.1817C92.9198 23.5513 92.7517 21.921 92.4343 20.3279C86.8422 17.8964 80.8299 16.294 74.6122 15.6326ZM68.2639 15.5021C66.5648 15.5021 64.8656 15.7257 63.2039 16.1729C58.1905 17.5144 54.0081 20.7192 51.4127 25.2003C50.8059 26.253 50.2924 27.3617 49.891 28.5075C55.7819 26.1692 62.0182 24.9767 68.4319 24.9767C74.8456 24.9767 80.7459 26.104 86.4967 28.3212C84.947 24.0171 81.9222 20.4025 77.9358 18.1014C74.9763 16.3965 71.6341 15.4928 68.2545 15.4928L68.2639 15.5021ZM68.2359 14.496C76.6008 14.496 84.6762 16.1636 92.2383 19.4336C89.6056 8.55226 79.6162 0.680082 68.3759 0.680082C57.1356 0.680082 47.2583 8.31936 44.5416 19.3031C52.0195 16.1077 59.9923 14.496 68.2359 14.496Z" fill="url(#paint0_linear_16_626)"/>
<path d="M96.4019 116.509H95.375V149.05H96.4019V116.509Z" fill="#040000"/>
<path d="M105.355 148.64V116.48H116.857V117.505H106.382V145.938L116.474 134.6L117.24 135.281L105.355 148.64Z" fill="#040000"/>
<path d="M125.391 148.64V116.48H136.892V117.505H126.418V145.938L136.164 134.992H130.059V133.967H137.406V135.131L125.391 148.64Z" fill="#040000"/>
<path d="M101.722 147.475H100.145V149.05H101.722V147.475Z" fill="#040000"/>
<path d="M122 147.475H120.422V149.05H122V147.475Z" fill="#040000"/>
</g>
<defs>
<linearGradient id="paint0_linear_16_626" x1="16.6835" y1="22.9085" x2="120.121" y2="126.555" gradientUnits="userSpaceOnUse">
<stop stop-color="#CBA600"/>
<stop offset="0.05" stop-color="#CAA002"/>
<stop offset="0.11" stop-color="#C78F0A"/>
<stop offset="0.17" stop-color="#C27416"/>
<stop offset="0.25" stop-color="#BC4E27"/>
<stop offset="0.32" stop-color="#B31F3D"/>
<stop offset="0.33" stop-color="#B31A40"/>
<stop offset="0.5" stop-color="#5E2468"/>
<stop offset="0.65" stop-color="#064679"/>
<stop offset="0.67" stop-color="#054978"/>
<stop offset="0.8" stop-color="#036474"/>
<stop offset="0.91" stop-color="#027571"/>
<stop offset="1" stop-color="#027B71"/>
</linearGradient>
<clipPath id="clip0_16_626">
<rect width="137.405" height="150" fill="white"/>
</clipPath>
</defs>
</svg>
