<svg width="31" height="34" viewBox="0 0 31 34" fill="none" xmlns="http://www.w3.org/2000/svg">
<path d="M30.8158 26.4271C30.6741 26.0308 30.4191 25.6345 30.0791 25.3089C29.7107 24.955 29.2148 24.587 28.6481 24.1765C27.798 23.5679 26.7779 22.9309 25.8569 22.393C25.4036 22.1241 24.9644 21.8834 24.596 21.6994C24.2134 21.5012 23.9159 21.3597 23.6325 21.2606C23.3917 21.1757 23.1367 21.1474 22.8958 21.1474C22.159 21.1474 21.5073 21.4446 20.9548 21.8693C20.4022 22.2939 19.9488 22.8743 19.6938 23.5679C19.6654 23.6528 19.6229 23.7236 19.5946 23.7802C18.8012 23.2706 16.846 21.8268 13.984 18.4155C12.0146 16.0799 10.8812 14.3247 10.2436 13.164C9.96024 12.6403 9.77605 12.244 9.64854 11.975C9.70521 11.9609 9.79022 11.9326 9.87523 11.9184C10.6686 11.7627 11.3629 11.3664 11.9013 10.8285C12.1705 10.5595 12.3972 10.2481 12.5672 9.90841C12.7372 9.56869 12.8364 9.17236 12.8364 8.76186C12.8364 8.64863 12.8364 8.53539 12.808 8.42215C12.7797 8.20982 12.723 8.01166 12.6522 7.77102C12.4113 6.95004 11.958 5.70441 11.4479 4.48709C11.1929 3.87843 10.9237 3.28393 10.6686 2.74604C10.3995 2.20816 10.1586 1.74105 9.90357 1.37302C9.54936 0.835137 9.05347 0.481266 8.54342 0.268943C8.04753 0.0566195 7.53748 0 7.0841 0C6.65905 0 6.27651 0.0566195 5.93647 0.141549C5.76645 0.184013 5.62477 0.226478 5.48309 0.283097C5.34141 0.339717 5.21389 0.396336 5.08638 0.467111L5.05804 0.410491V0.481266C5.05804 0.481266 4.90219 0.566195 4.77468 0.651124C4.17962 1.005 3.01782 1.76936 1.96938 3.0433C0.920932 4.31724 0 6.12906 0 8.4363C0 8.91757 0.0425046 9.4413 0.127514 9.96503C1.09095 15.7968 3.83958 20.6095 6.97075 24.3181C10.1019 28.0266 14.3807 31.5512 19.963 33.4904C20.9973 33.8443 21.9749 34 22.8816 34C25.0777 34 26.8346 33.1082 28.0672 32.2165C28.6764 31.7635 29.1581 31.3106 29.5123 30.9284C29.6824 30.7444 29.8382 30.5745 29.9374 30.4471C30.0507 30.3197 30.1216 30.2206 30.1357 30.2065C30.2633 30.0508 30.3483 29.9092 30.4474 29.7394C30.7166 29.2298 30.9858 28.4796 31 27.602C31 27.234 30.9433 26.8376 30.8016 26.4271H30.8158ZM1.98355 8.4363C1.98355 7.41715 2.21024 6.56786 2.55027 5.81765C3.06033 4.69942 3.86792 3.83597 4.59049 3.24147C4.9447 2.94421 5.28474 2.70358 5.55393 2.53372C5.68144 2.44879 5.79479 2.37802 5.89397 2.3214C5.97898 2.26478 6.04982 2.23647 6.10649 2.194C6.10649 2.194 6.27651 2.12323 6.44653 2.08077C6.63071 2.0383 6.8574 2.00999 7.0841 2.00999C7.33912 2.00999 7.59415 2.05246 7.79251 2.13739C7.99086 2.22231 8.13254 2.3214 8.26006 2.50541C8.44424 2.77435 8.71344 3.26978 8.98263 3.85012C9.39351 4.72773 9.84689 5.8035 10.2011 6.73772C10.3711 7.20483 10.527 7.64363 10.6403 7.9975C10.7537 8.35137 10.8245 8.63447 10.8387 8.70525V8.76186C10.8387 8.76186 10.8245 8.93172 10.7678 9.04496C10.6828 9.22898 10.4986 9.4413 10.2719 9.61116C10.0452 9.78102 9.76188 9.90841 9.49269 9.96503C9.13848 10.0358 8.84095 10.1349 8.57176 10.2623C8.17505 10.4604 7.87751 10.7435 7.72166 11.055C7.55165 11.3522 7.52331 11.6353 7.52331 11.791V11.9042L7.56581 12.0741C7.60832 12.244 8.3734 14.8485 12.468 19.6894C16.5626 24.5445 18.9995 25.7336 19.1554 25.8043L19.3254 25.8609C19.3254 25.8609 19.5096 25.9034 19.6654 25.9034C19.9346 25.9034 20.3455 25.8185 20.6997 25.5212C21.0539 25.2381 21.3515 24.8135 21.564 24.2473C21.6773 23.9359 21.9182 23.6245 22.1874 23.4122C22.4566 23.1998 22.7541 23.1007 22.91 23.1149H23.0375C23.0375 23.1149 23.2358 23.1998 23.4059 23.2989C24.0434 23.6103 25.1627 24.2473 26.2253 24.9267C26.7495 25.2664 27.2738 25.6062 27.713 25.9317C28.1522 26.2431 28.5206 26.5404 28.7331 26.7386C28.8606 26.8518 28.9173 26.965 28.974 27.1066C29.0306 27.2481 29.0448 27.4038 29.0448 27.5878C29.0448 27.8709 28.9739 28.1965 28.8748 28.4654C28.8323 28.5928 28.7756 28.7061 28.7331 28.791L28.6764 28.8901C28.6197 28.975 28.5631 29.0458 28.4639 29.159C28.1522 29.5271 27.4721 30.2631 26.5229 30.8859C25.5736 31.5087 24.3551 32.0183 22.91 32.0183C22.2157 32.0183 21.4648 31.9051 20.6431 31.622C15.4717 29.8243 11.4762 26.5545 8.51508 23.0441C5.55393 19.5337 3.00366 15.0466 2.11106 9.65362C2.04022 9.22898 2.01188 8.81848 2.01188 8.4363H1.98355Z" fill="white"/>
</svg>
